<svg xmlns="http://www.w3.org/2000/svg" xmlns:xlink="http://www.w3.org/1999/xlink" width="70" height="70" viewBox="0 0 70 70">
  <defs>
    <circle id="roundlogo-wph-copy-a" cx="32.666" cy="32.666" r="32.666"/>
    <filter id="roundlogo-wph-copy-b" width="110.7%" height="110.7%" x="-5.4%" y="-3.8%" filterUnits="objectBoundingBox">
      <feOffset dy="1" in="SourceAlpha" result="shadowOffsetOuter1"/>
      <feGaussianBlur in="shadowOffsetOuter1" result="shadowBlurOuter1" stdDeviation="1"/>
      <feColorMatrix in="shadowBlurOuter1" values="0 0 0 0 0   0 0 0 0 0   0 0 0 0 0  0 0 0 0.5 0"/>
    </filter>
  </defs>
  <g fill="none" fill-rule="evenodd" transform="translate(-360 -70)">
    <rect width="2074" height="1429" fill="#FFF"/>
    <g transform="translate(362 71)">
      <mask id="roundlogo-wph-copy-c" fill="#fff">
        <use xlink:href="#roundlogo-wph-copy-a"/>
      </mask>
      <use fill="#000" filter="url(#roundlogo-wph-copy-b)" xlink:href="#roundlogo-wph-copy-a"/>
      <use fill="#000" xlink:href="#roundlogo-wph-copy-a"/>
      <path fill="#FFF" d="M23.0750648,35.0089554 L25.0929355,23.5521194 C25.1262889,23.3742346 25.1429653,23.1963525 25.1429653,23.0184677 C25.1429653,22.4848133 24.8872597,22.1068137 24.3758409,21.8844577 C23.9867179,21.7065729 23.7921593,21.4731026 23.7921593,21.1840398 L23.7921593,20.4502687 C23.7921593,20.1500881 23.9644827,20 24.3091345,20 L28.0280201,20 C28.4060253,20 28.5950251,20.1778821 28.5950251,20.5336517 L28.5950251,21.1840398 C28.5950251,21.395278 28.4504958,21.5953954 28.161433,21.784398 C27.6500142,22.1290498 27.3331616,22.6349022 27.2108658,23.3019702 L23.1751245,45.7486967 C23.1195355,46.1044664 22.9638886,46.2823485 22.7081792,46.2823485 L21.9744081,46.2823485 C21.7854055,46.2823485 21.6575527,46.1044664 21.5908459,45.7486967 L18.8392041,30.8564777 L16.1375921,45.7486967 C16.0708853,46.1044664 15.9207972,46.2823485 15.6873234,46.2823485 L14.9702289,46.2823485 C14.7478729,46.2823485 14.6033437,46.1044664 14.5366369,45.7486967 L10.2674229,22.8183483 C10.1784805,22.2846939 9.88942202,21.9344884 9.40023881,21.7677214 C9.1334116,21.678779 9,21.4953381 9,21.217393 L9,20.433592 C9,20.1445292 9.16120569,20 9.48362189,20 L14.3531941,20 C14.5644323,20 14.6700498,20.0889411 14.6700498,20.2668259 L14.6700498,21.2840995 C14.6700498,21.4619843 14.5644323,21.5953959 14.3531941,21.6843383 C13.9529533,21.8622231 13.7528359,22.1735169 13.7528359,22.6182289 C13.7528359,22.7516425 13.7695123,22.918407 13.8028657,23.1185274 L16.0208558,35.0089554 L17.7885772,25.1363981 L17.3549851,22.8183483 C17.2660427,22.3402829 16.9714255,22.0067539 16.4711244,21.8177513 C16.2487684,21.7288089 16.1375921,21.5898384 16.1375921,21.4008358 L16.1375921,20.3335323 C16.1375921,20.1111763 16.2376508,20 16.4377712,20 L21.6075225,20 C21.8521141,20 21.9744081,20.1111763 21.9744081,20.3335323 L21.9744081,20.9338906 C21.9744081,21.2118356 21.9493934,21.4008353 21.8993633,21.5008955 C21.8493332,21.6009557 21.7020246,21.7176909 21.4574329,21.8511045 C21.0460743,22.0623427 20.8403981,22.3625188 20.8403981,22.7516418 C20.8403981,22.8628198 20.8515158,22.9851138 20.8737514,23.1185274 L23.0750648,35.0089554 Z M34.4651943,34.0083583 L34.4651943,42.8302888 C34.4651943,43.4084144 34.6764293,43.8420021 35.0989057,44.1310649 C35.3879685,44.3200675 35.5324978,44.5424202 35.5324978,44.7981296 L35.5324978,45.5485773 C35.5324978,45.8042868 35.3879685,45.9321395 35.0989057,45.9321395 L29.8958012,45.9321395 C29.6512096,45.9321395 29.5289156,45.8154044 29.5289156,45.5819306 L29.5289156,44.7981296 C29.5289156,44.553538 29.6734448,44.3311853 29.9625077,44.1310649 C30.3849841,43.8308843 30.5962191,43.3972966 30.5962191,42.8302888 L30.5962191,23.0851742 C30.5962191,22.5181663 30.3849841,22.0901375 29.9625077,21.8010746 C29.6734448,21.612072 29.5289156,21.3841606 29.5289156,21.1173333 L29.5289156,20.3835622 C29.5289156,20.1278528 29.6734448,20 29.9625077,20 L34.4651943,20 C36.9111103,20 38.8038874,20.6364845 40.1435824,21.9094727 C41.4832773,23.1824608 42.1531147,24.8751205 42.1531147,26.9875026 C42.1531147,31.6680965 39.5905002,34.0083583 34.4651943,34.0083583 Z M34.4651943,21.9845174 L34.4651943,32.0405175 C35.4657963,32.0405175 36.1967807,31.9265618 36.6581694,31.6986469 C37.1195581,31.470732 37.4892194,31.014909 37.7671644,30.3311643 C38.0451094,29.6474196 38.1840799,28.588465 38.1840799,27.1542687 C38.1840799,25.7311903 38.0562271,24.6666769 37.8005177,23.9606966 C37.5448083,23.2547162 37.1612499,22.7572021 36.6498311,22.4681393 C36.1384123,22.1790765 35.4102073,22.0178708 34.4651943,21.9845174 Z M55.9947069,23.0851742 L55.9947069,42.8302888 C55.9947069,43.4084144 56.2115007,43.8420021 56.645095,44.1310649 C56.9341578,44.3200675 57.078687,44.5424202 57.078687,44.7981296 L57.078687,45.5485773 C57.078687,45.8042868 56.9341578,45.9321395 56.645095,45.9321395 L51.4419904,45.9321395 C51.1973988,45.9321395 51.0751049,45.8154044 51.0751049,45.5819306 L51.0751049,44.7981296 C51.0751049,44.553538 51.2140753,44.3311853 51.4920203,44.1310649 C51.9256145,43.8308843 52.1424083,43.3972966 52.1424083,42.8302888 L52.1424083,33.2745872 L48.2901098,33.2745872 L48.2901098,42.8302888 C48.2901098,43.4084144 48.5013448,43.8420021 48.9238213,44.1310649 C49.2128841,44.3200675 49.3574133,44.5424202 49.3574133,44.7981296 L49.3574133,45.5485773 C49.3574133,45.8042868 49.2128841,45.9321395 48.9238213,45.9321395 L43.7207167,45.9321395 C43.4761251,45.9321395 43.3538312,45.8154044 43.3538312,45.5819306 L43.3538312,44.7981296 C43.3538312,44.553538 43.4983604,44.3311853 43.7874232,44.1310649 C44.2098996,43.8308843 44.4211346,43.3972966 44.4211346,42.8302888 L44.4211346,23.0851742 C44.4211346,22.5181663 44.2098996,22.0901375 43.7874232,21.8010746 C43.4983604,21.612072 43.3538312,21.3841606 43.3538312,21.1173333 L43.3538312,20.3835622 C43.3538312,20.1278528 43.4983604,20 43.7874232,20 L48.9905277,20 C49.2351193,20 49.3574133,20.1167352 49.3574133,20.350209 L49.3574133,21.1173333 C49.3574133,21.3730428 49.2128841,21.6009542 48.9238213,21.8010746 C48.5013448,22.1012553 48.2901098,22.5292841 48.2901098,23.0851742 L48.2901098,30.9398608 L52.1424083,30.9398608 L52.1424083,23.0851742 C52.1424083,22.5181663 51.9256145,22.0901375 51.4920203,21.8010746 C51.2029575,21.612072 51.0584282,21.3841606 51.0584282,21.1173333 L51.0584282,20.3835622 C51.0584282,20.1278528 51.2029575,20 51.4920203,20 L56.6951248,20 C56.9397164,20 57.0620104,20.1167352 57.0620104,20.350209 L57.0620104,21.1173333 C57.0620104,21.3730428 56.92304,21.6009542 56.645095,21.8010746 C56.2115007,22.1012553 55.9947069,22.5292841 55.9947069,23.0851742 Z" mask="url(#roundlogo-wph-copy-c)"/>
    </g>
  </g>
</svg>
