<svg xmlns="http://www.w3.org/2000/svg" xmlns:xlink="http://www.w3.org/1999/xlink" width="69" height="69" viewBox="0 0 69 69">
  <defs>
    <circle id="roundlogo-nynews-a" cx="32.326" cy="32.326" r="32.326"/>
    <filter id="roundlogo-nynews-b" width="110.8%" height="110.8%" x="-5.4%" y="-3.9%" filterUnits="objectBoundingBox">
      <feOffset dy="1" in="SourceAlpha" result="shadowOffsetOuter1"/>
      <feGaussianBlur in="shadowOffsetOuter1" result="shadowBlurOuter1" stdDeviation="1"/>
      <feColorMatrix in="shadowBlurOuter1" values="0 0 0 0 0   0 0 0 0 0   0 0 0 0 0  0 0 0 0.5 0"/>
    </filter>
  </defs>
  <g fill="none" fill-rule="evenodd" transform="translate(-191 -70)">
    <rect width="2074" height="1429" fill="#FFF"/>
    <g transform="translate(193 71)">
      <mask id="roundlogo-nynews-c" fill="#fff">
        <use xlink:href="#roundlogo-nynews-a"/>
      </mask>
      <use fill="#000" filter="url(#roundlogo-nynews-b)" xlink:href="#roundlogo-nynews-a"/>
      <use fill="#CB0102" xlink:href="#roundlogo-nynews-a"/>
      <path fill="#FFF" d="M31.2866004,39.84375 L29.6138562,39.84375 L15.5498133,18.7639258 L15.4198914,18.7639258 C15.5498139,21.2757613 15.6147742,23.1704363 15.6147742,24.4480078 L15.6147742,39.84375 L14.0232312,39.84375 L14.0232312,16.1005273 L15.6797352,16.1005273 L29.7275379,37.1478711 L29.8249793,37.1478711 C29.7275374,35.1990332 29.6788172,33.347665 29.6788172,31.5937109 L29.6788172,16.1005273 L31.2866004,16.1005273 L31.2866004,39.84375 Z M44.2605762,29.0927148 L51.2113965,16.1005273 L52.9978223,16.1005273 L45.0888281,30.6680176 L45.0888281,39.84375 L43.3836035,39.84375 L43.3836035,30.7979395 L35.4421289,16.1005273 L37.3422363,16.1005273 L44.2605762,29.0927148 Z M22.5149512,50.84375 L20.3487207,50.84375 L16.8519629,44.7629102 L16.8024805,44.7629102 C16.8721227,45.8368673 16.9069434,46.6029209 16.9069434,47.0610938 L16.9069434,50.84375 L15.3839844,50.84375 L15.3839844,42.8056055 L17.5337207,42.8056055 L21.0249805,48.8259668 L21.0634668,48.8259668 C21.0084861,47.7813327 20.9809961,47.0427691 20.9809961,46.6102539 L20.9809961,42.8056055 L22.5149512,42.8056055 L22.5149512,50.84375 Z M29.9575879,50.84375 L25.3282324,50.84375 L25.3282324,42.8056055 L29.9575879,42.8056055 L29.9575879,44.2021094 L27.032627,44.2021094 L27.032627,45.9669824 L29.7541602,45.9669824 L29.7541602,47.3634863 L27.032627,47.3634863 L27.032627,49.43625 L29.9575879,49.43625 L29.9575879,50.84375 Z M40.2537109,50.84375 L38.3129004,50.84375 L37.2242871,46.62125 C37.1839679,46.4709693 37.115243,46.1603328 37.0181104,45.6893311 C36.9209777,45.2183294 36.8650815,44.9021948 36.8504199,44.740918 C36.8284276,44.9388486 36.7734477,45.2568158 36.6854785,45.6948291 C36.5975093,46.1328424 36.5297008,46.4453116 36.4820508,46.6322461 L35.3989355,50.84375 L33.463623,50.84375 L31.4128516,42.8056055 L33.0897559,42.8056055 L34.1178906,47.1930469 C34.2974944,48.0030965 34.4276135,48.7050068 34.508252,49.2987988 C34.5302443,49.089872 34.5806425,48.7664068 34.6594482,48.3283936 C34.738254,47.8903803 34.8124769,47.5504211 34.8821191,47.3085059 L36.0532031,42.8056055 L37.6641309,42.8056055 L38.8352148,47.3085059 C38.8865302,47.5101019 38.9506734,47.8179895 39.0276465,48.2321777 C39.1046195,48.646366 39.1632648,49.0019028 39.203584,49.2987988 C39.2402378,49.012899 39.2988831,48.6564458 39.3795215,48.2294287 C39.4601599,47.8024116 39.5334665,47.4569544 39.5994434,47.1930469 L40.6220801,42.8056055 L42.2989844,42.8056055 L40.2537109,50.84375 Z M48.8454395,48.611543 C48.8454395,49.3372888 48.5842848,49.9090799 48.0619678,50.3269336 C47.5396507,50.7447872 46.8129994,50.9537109 45.8819922,50.9537109 C45.0242926,50.9537109 44.2655697,50.7924365 43.6058008,50.4698828 L43.6058008,48.8864453 C44.1482775,49.1283606 44.6073598,49.2987983 44.9830615,49.3977637 C45.3587633,49.496729 45.7023878,49.5462109 46.0139453,49.5462109 C46.3878144,49.5462109 46.6746263,49.474737 46.8743896,49.3317871 C47.074153,49.1888372 47.1740332,48.9762482 47.1740332,48.6940137 C47.1740332,48.5364022 47.1300493,48.3962034 47.0420801,48.2734131 C46.9541109,48.1506228 46.8249081,48.0324159 46.6544678,47.9187891 C46.4840275,47.8051622 46.1367376,47.6237285 45.6125879,47.3744824 C45.1214266,47.1435633 44.7530611,46.921811 44.5074805,46.7092188 C44.2618998,46.4966265 44.0658048,46.2492169 43.9191895,45.9669824 C43.7725741,45.6847479 43.6992676,45.3548684 43.6992676,44.977334 C43.6992676,44.2662497 43.9402629,43.7072872 44.4222607,43.3004297 C44.9042586,42.8935722 45.5704319,42.6901465 46.4208008,42.6901465 C46.8386544,42.6901465 47.2372588,42.7396284 47.616626,42.8385938 C47.9959931,42.9375591 48.3927649,43.0768415 48.8069531,43.2564453 L48.2571484,44.5814746 C47.8282986,44.4055362 47.4736782,44.2827477 47.1932764,44.2131055 C46.9128746,44.1434632 46.6370586,44.1086426 46.3658203,44.1086426 C46.0432666,44.1086426 45.795857,44.1837818 45.623584,44.3340625 C45.451311,44.4843432 45.3651758,44.6804382 45.3651758,44.9223535 C45.3651758,45.0726342 45.3999964,45.2036697 45.4696387,45.3154639 C45.5392809,45.427258 45.6501571,45.5353852 45.8022705,45.6398486 C45.9543839,45.744312 46.3145024,45.9321601 46.8826367,46.2033984 C47.6340402,46.562606 48.1490188,46.9227244 48.4275879,47.2837646 C48.706157,47.6448049 48.8454395,48.0873932 48.8454395,48.611543 Z" mask="url(#roundlogo-nynews-c)"/>
    </g>
  </g>
</svg>
